<svg id="SvgjsSvg1220" width="735" height="509" xmlns="http://www.w3.org/2000/svg" version="1.1" xmlns:xlink="http://www.w3.org/1999/xlink" xmlns:svgjs="http://svgjs.com/svgjs"><defs id="SvgjsDefs1221"><marker id="SvgjsMarker1284" markerWidth="14" markerHeight="10" refX="10" refY="5" viewBox="0 0 14 10" orient="auto" markerUnits="userSpaceOnUse" stroke-dasharray="0,0"><path id="SvgjsPath1285" d="M0,0 L14,5 L0,10 L0,0" fill="#323232" stroke="#323232" stroke-width="1"></path></marker><marker id="SvgjsMarker1288" markerWidth="14" markerHeight="10" refX="10" refY="5" viewBox="0 0 14 10" orient="auto" markerUnits="userSpaceOnUse" stroke-dasharray="0,0"><path id="SvgjsPath1289" d="M0,0 L14,5 L0,10 L0,0" fill="#323232" stroke="#323232" stroke-width="1"></path></marker><marker id="SvgjsMarker1292" markerWidth="14" markerHeight="10" refX="10" refY="5" viewBox="0 0 14 10" orient="auto" markerUnits="userSpaceOnUse" stroke-dasharray="0,0"><path id="SvgjsPath1293" d="M0,0 L14,5 L0,10 L0,0" fill="#323232" stroke="#323232" stroke-width="1"></path></marker><marker id="SvgjsMarker1296" markerWidth="14" markerHeight="10" refX="10" refY="5" viewBox="0 0 14 10" orient="auto" markerUnits="userSpaceOnUse" stroke-dasharray="0,0"><path id="SvgjsPath1297" d="M0,0 L14,5 L0,10 L0,0" fill="#323232" stroke="#323232" stroke-width="1"></path></marker><marker id="SvgjsMarker1300" markerWidth="14" markerHeight="10" refX="10" refY="5" viewBox="0 0 14 10" orient="auto" markerUnits="userSpaceOnUse" stroke-dasharray="0,0"><path id="SvgjsPath1301" d="M0,0 L14,5 L0,10 L0,0" fill="#323232" stroke="#323232" stroke-width="1"></path></marker><marker id="SvgjsMarker1304" markerWidth="14" markerHeight="10" refX="10" refY="5" viewBox="0 0 14 10" orient="auto" markerUnits="userSpaceOnUse" stroke-dasharray="0,0"><path id="SvgjsPath1305" d="M0,0 L14,5 L0,10 L0,0" fill="#323232" stroke="#323232" stroke-width="1"></path></marker><marker id="SvgjsMarker1308" markerWidth="14" markerHeight="10" refX="10" refY="5" viewBox="0 0 14 10" orient="auto" markerUnits="userSpaceOnUse" stroke-dasharray="0,0"><path id="SvgjsPath1309" d="M0,0 L14,5 L0,10 L0,0" fill="#323232" stroke="#323232" stroke-width="1"></path></marker><marker id="SvgjsMarker1312" markerWidth="14" markerHeight="10" refX="10" refY="5" viewBox="0 0 14 10" orient="auto" markerUnits="userSpaceOnUse" stroke-dasharray="0,0"><path id="SvgjsPath1313" d="M0,0 L14,5 L0,10 L0,0" fill="#323232" stroke="#323232" stroke-width="1"></path></marker><marker id="SvgjsMarker1316" markerWidth="14" markerHeight="10" refX="10" refY="5" viewBox="0 0 14 10" orient="auto" markerUnits="userSpaceOnUse" stroke-dasharray="0,0"><path id="SvgjsPath1317" d="M0,0 L14,5 L0,10 L0,0" fill="#323232" stroke="#323232" stroke-width="1"></path></marker><pattern id="SvgjsPattern1378" x="0" y="0" width="37" height="21" patternUnits="userSpaceOnUse"><image id="SvgjsImage1379" xlink:href="http://cdn.processon.com/6299cbde63768907520150ce?e=1654249966&amp;token=trhI0BY8QfVrIGn9nENop6JAc6l5nZuxhjQ62UfM:paoCp9gp_tUq-wVB7Wu-f_tY8RY=" width="37" height="210" preserveAspectRatio="none" crossOrigin="anonymous" x="0" y="0"></image></pattern><pattern id="SvgjsPattern1384" x="0" y="0" width="37" height="21" patternUnits="userSpaceOnUse"><image id="SvgjsImage1385" xlink:href="http://cdn.processon.com/6299cbde63768907520150ce?e=1654249966&amp;token=trhI0BY8QfVrIGn9nENop6JAc6l5nZuxhjQ62UfM:paoCp9gp_tUq-wVB7Wu-f_tY8RY=" width="37" height="210" preserveAspectRatio="none" crossOrigin="anonymous" x="0" y="-21"></image></pattern><pattern id="SvgjsPattern1390" x="0" y="0" width="37" height="21" patternUnits="userSpaceOnUse"><image id="SvgjsImage1391" xlink:href="http://cdn.processon.com/6299cbde63768907520150ce?e=1654249966&amp;token=trhI0BY8QfVrIGn9nENop6JAc6l5nZuxhjQ62UfM:paoCp9gp_tUq-wVB7Wu-f_tY8RY=" width="37" height="210" preserveAspectRatio="none" crossOrigin="anonymous" x="0" y="-42"></image></pattern><pattern id="SvgjsPattern1396" x="0" y="0" width="37" height="21" patternUnits="userSpaceOnUse"><image id="SvgjsImage1397" xlink:href="http://cdn.processon.com/6299cbde63768907520150ce?e=1654249966&amp;token=trhI0BY8QfVrIGn9nENop6JAc6l5nZuxhjQ62UfM:paoCp9gp_tUq-wVB7Wu-f_tY8RY=" width="37" height="210" preserveAspectRatio="none" crossOrigin="anonymous" x="0" y="-63"></image></pattern><pattern id="SvgjsPattern1402" x="0" y="0" width="37" height="21" patternUnits="userSpaceOnUse"><image id="SvgjsImage1403" xlink:href="http://cdn.processon.com/6299cbde63768907520150ce?e=1654249966&amp;token=trhI0BY8QfVrIGn9nENop6JAc6l5nZuxhjQ62UfM:paoCp9gp_tUq-wVB7Wu-f_tY8RY=" width="37" height="210" preserveAspectRatio="none" crossOrigin="anonymous" x="0" y="-84"></image></pattern><pattern id="SvgjsPattern1408" x="0" y="0" width="37" height="21" patternUnits="userSpaceOnUse"><image id="SvgjsImage1409" xlink:href="http://cdn.processon.com/6299cbde63768907520150ce?e=1654249966&amp;token=trhI0BY8QfVrIGn9nENop6JAc6l5nZuxhjQ62UfM:paoCp9gp_tUq-wVB7Wu-f_tY8RY=" width="37" height="210" preserveAspectRatio="none" crossOrigin="anonymous" x="0" y="-105"></image></pattern><pattern id="SvgjsPattern1414" x="0" y="0" width="37" height="21" patternUnits="userSpaceOnUse"><image id="SvgjsImage1415" xlink:href="http://cdn.processon.com/6299cbde63768907520150ce?e=1654249966&amp;token=trhI0BY8QfVrIGn9nENop6JAc6l5nZuxhjQ62UfM:paoCp9gp_tUq-wVB7Wu-f_tY8RY=" width="37" height="210" preserveAspectRatio="none" crossOrigin="anonymous" x="0" y="-126"></image></pattern><pattern id="SvgjsPattern1420" x="0" y="0" width="37" height="21" patternUnits="userSpaceOnUse"><image id="SvgjsImage1421" xlink:href="http://cdn.processon.com/6299cbde63768907520150ce?e=1654249966&amp;token=trhI0BY8QfVrIGn9nENop6JAc6l5nZuxhjQ62UfM:paoCp9gp_tUq-wVB7Wu-f_tY8RY=" width="37" height="210" preserveAspectRatio="none" crossOrigin="anonymous" x="0" y="-147"></image></pattern><pattern id="SvgjsPattern1426" x="0" y="0" width="37" height="21" patternUnits="userSpaceOnUse"><image id="SvgjsImage1427" xlink:href="http://cdn.processon.com/6299cbde63768907520150ce?e=1654249966&amp;token=trhI0BY8QfVrIGn9nENop6JAc6l5nZuxhjQ62UfM:paoCp9gp_tUq-wVB7Wu-f_tY8RY=" width="37" height="210" preserveAspectRatio="none" crossOrigin="anonymous" x="0" y="-168"></image></pattern><pattern id="SvgjsPattern1432" x="0" y="0" width="37" height="21" patternUnits="userSpaceOnUse"><image id="SvgjsImage1433" xlink:href="http://cdn.processon.com/6299cbde63768907520150ce?e=1654249966&amp;token=trhI0BY8QfVrIGn9nENop6JAc6l5nZuxhjQ62UfM:paoCp9gp_tUq-wVB7Wu-f_tY8RY=" width="37" height="210" preserveAspectRatio="none" crossOrigin="anonymous" x="0" y="-189"></image></pattern></defs><g id="SvgjsG1222" transform="translate(444,25)"><path id="SvgjsPath1223" d="M 0 34C 0 -11.333333333333334 89 -11.333333333333334 89 34C 89 79.33333333333333 0 79.33333333333333 0 34Z" stroke="rgba(50,50,50,1)" stroke-width="2" fill-opacity="1" fill="#ffffff"></path><g id="SvgjsG1224"><text id="SvgjsText1225" font-family="微软雅黑" text-anchor="middle" font-size="13px" width="69px" fill="#323232" font-weight="400" align="middle" lineHeight="125%" anchor="middle" family="微软雅黑" size="13px" weight="400" font-style="" opacity="1" y="23.375" transform="rotate(0)"><tspan id="SvgjsTspan1226" dy="16" x="44.5"><tspan id="SvgjsTspan1227" style="text-decoration:;">x1/希望-01</tspan></tspan></text></g></g><g id="SvgjsG1228" transform="translate(281.5,137.5)"><path id="SvgjsPath1229" d="M 0 28.5C 0 -9.5 80 -9.5 80 28.5C 80 66.5 0 66.5 0 28.5Z" stroke="rgba(50,50,50,1)" stroke-width="2" fill-opacity="1" fill="#ffffff"></path><g id="SvgjsG1230"><text id="SvgjsText1231" font-family="微软雅黑" text-anchor="middle" font-size="13px" width="60px" fill="#323232" font-weight="400" align="middle" lineHeight="125%" anchor="middle" family="微软雅黑" size="13px" weight="400" font-style="" opacity="1" y="17.875" transform="rotate(0)"><tspan id="SvgjsTspan1232" dy="16" x="40"><tspan id="SvgjsTspan1233" style="text-decoration:;">x6/给-01</tspan></tspan></text></g></g><g id="SvgjsG1234" transform="translate(113,253)"><path id="SvgjsPath1235" d="M 0 34C 0 -11.333333333333334 69 -11.333333333333334 69 34C 69 79.33333333333333 0 79.33333333333333 0 34Z" stroke="rgba(50,50,50,1)" stroke-width="2" fill-opacity="1" fill="#ffffff"></path><g id="SvgjsG1236"><text id="SvgjsText1237" font-family="微软雅黑" text-anchor="middle" font-size="13px" width="49px" fill="#323232" font-weight="400" align="middle" lineHeight="125%" anchor="middle" family="微软雅黑" size="13px" weight="400" font-style="" opacity="1" y="23.375" transform="rotate(0)"><tspan id="SvgjsTspan1238" dy="16" x="34.5"><tspan id="SvgjsTspan1239" style="text-decoration:;">x5/经历</tspan></tspan></text></g></g><g id="SvgjsG1240" transform="translate(287,253)"><path id="SvgjsPath1241" d="M 0 34C 0 -11.333333333333334 69 -11.333333333333334 69 34C 69 79.33333333333333 0 79.33333333333333 0 34Z" stroke="rgba(50,50,50,1)" stroke-width="2" fill-opacity="1" fill="#ffffff"></path><g id="SvgjsG1242"><text id="SvgjsText1243" font-family="微软雅黑" text-anchor="middle" font-size="13px" width="49px" fill="#323232" font-weight="400" align="middle" lineHeight="125%" anchor="middle" family="微软雅黑" size="13px" weight="400" font-style="" opacity="1" y="23.375" transform="rotate(0)"><tspan id="SvgjsTspan1244" dy="16" x="34.5"><tspan id="SvgjsTspan1245" style="text-decoration:;">x7/大家</tspan></tspan></text></g></g><g id="SvgjsG1246" transform="translate(25,415)"><path id="SvgjsPath1247" d="M 0 34C 0 -11.333333333333334 69 -11.333333333333334 69 34C 69 79.33333333333333 0 79.33333333333333 0 34Z" stroke="rgba(50,50,50,1)" stroke-width="2" fill-opacity="1" fill="#ffffff"></path><g id="SvgjsG1248"><text id="SvgjsText1249" font-family="微软雅黑" text-anchor="middle" font-size="13px" width="49px" fill="#323232" font-weight="400" align="middle" lineHeight="125%" anchor="middle" family="微软雅黑" size="13px" weight="400" font-style="" opacity="1" y="23.375" transform="rotate(0)"><tspan id="SvgjsTspan1250" dy="16" x="34.5"><tspan id="SvgjsTspan1251" style="text-decoration:;">x2/我</tspan></tspan></text></g></g><g id="SvgjsG1252" transform="translate(171,415)"><path id="SvgjsPath1253" d="M 0 34C 0 -11.333333333333334 89 -11.333333333333334 89 34C 89 79.33333333333333 0 79.33333333333333 0 34Z" stroke="rgba(50,50,50,1)" stroke-width="2" fill-opacity="1" fill="#ffffff"></path><g id="SvgjsG1254"><text id="SvgjsText1255" font-family="微软雅黑" text-anchor="middle" font-size="13px" width="69px" fill="#323232" font-weight="400" align="middle" lineHeight="125%" anchor="middle" family="微软雅黑" size="13px" weight="400" font-style="" opacity="1" y="23.375" transform="rotate(0)"><tspan id="SvgjsTspan1256" dy="16" x="44.5"><tspan id="SvgjsTspan1257" style="text-decoration:;">x3/惨痛-01</tspan></tspan></text></g></g><g id="SvgjsG1258" transform="translate(479.5,253)"><path id="SvgjsPath1259" d="M 0 34C 0 -11.333333333333334 80 -11.333333333333334 80 34C 80 79.33333333333333 0 79.33333333333333 0 34Z" stroke="rgba(50,50,50,1)" stroke-width="2" fill-opacity="1" fill="#ffffff"></path><g id="SvgjsG1260"><text id="SvgjsText1261" font-family="微软雅黑" text-anchor="middle" font-size="13px" width="60px" fill="#323232" font-weight="400" align="middle" lineHeight="125%" anchor="middle" family="微软雅黑" size="13px" weight="400" font-style="" opacity="1" y="23.375" transform="rotate(0)"><tspan id="SvgjsTspan1262" dy="16" x="40"><tspan id="SvgjsTspan1263" style="text-decoration:;">x10/教训</tspan></tspan></text></g></g><g id="SvgjsG1264" transform="translate(575,415)"><path id="SvgjsPath1265" d="M 0 34C 0 -11.333333333333334 69 -11.333333333333334 69 34C 69 79.33333333333333 0 79.33333333333333 0 34Z" stroke="rgba(50,50,50,1)" stroke-width="2" fill-opacity="1" fill="#ffffff"></path><g id="SvgjsG1266"><text id="SvgjsText1267" font-family="微软雅黑" text-anchor="middle" font-size="13px" width="49px" fill="#323232" font-weight="400" align="middle" lineHeight="125%" anchor="middle" family="微软雅黑" size="13px" weight="400" font-style="" opacity="1" y="23.375" transform="rotate(0)"><tspan id="SvgjsTspan1268" dy="16" x="34.5"><tspan id="SvgjsTspan1269" style="text-decoration:;">x9/个</tspan></tspan></text></g></g><g id="SvgjsG1270" transform="translate(434,415)"><path id="SvgjsPath1271" d="M 0 34C 0 -11.333333333333334 69 -11.333333333333334 69 34C 69 79.33333333333333 0 79.33333333333333 0 34Z" stroke="rgba(50,50,50,1)" stroke-width="2" fill-opacity="1" fill="#ffffff"></path><g id="SvgjsG1272"><text id="SvgjsText1273" font-family="微软雅黑" text-anchor="middle" font-size="13px" width="49px" fill="#323232" font-weight="400" align="middle" lineHeight="125%" anchor="middle" family="微软雅黑" size="13px" weight="400" font-style="" opacity="1" y="23.375" transform="rotate(0)"><tspan id="SvgjsTspan1274" dy="16" x="34.5"><tspan id="SvgjsTspan1275" style="text-decoration:;">x8/1</tspan></tspan></text></g></g><g id="SvgjsG1276" transform="translate(593,137.5)"><path id="SvgjsPath1277" d="M 0 28.5C 0 -9.5 117 -9.5 117 28.5C 117 66.5 0 66.5 0 28.5Z" stroke="rgba(50,50,50,1)" stroke-width="2" fill-opacity="1" fill="#ffffff"></path><g id="SvgjsG1278"><text id="SvgjsText1279" font-family="微软雅黑" text-anchor="middle" font-size="13px" width="97px" fill="#323232" font-weight="400" align="middle" lineHeight="125%" anchor="middle" family="微软雅黑" size="13px" weight="400" font-style="" opacity="1" y="17.875" transform="rotate(0)"><tspan id="SvgjsTspan1280" dy="16" x="58.5"><tspan id="SvgjsTspan1281" style="text-decoration:;">x11/expressive</tspan></tspan></text></g></g><g id="SvgjsG1282"><path id="SvgjsPath1283" d="M487.5337170595391 93.25748257994319L324.9786185856593 136.57306271220455" stroke="#323232" stroke-width="2" fill="none" marker-end="url(#SvgjsMarker1284)"></path></g><g id="SvgjsG1286"><path id="SvgjsPath1287" d="M489.46469549977564 93.26336778981606L648.0270962008076 136.5518759566622" stroke="#323232" stroke-width="2" fill="none" marker-end="url(#SvgjsMarker1288)"></path></g><g id="SvgjsG1290"><path id="SvgjsPath1291" d="M321.5 195.5L321.5 249.39999999999998" stroke="#323232" stroke-width="2" fill="none" marker-end="url(#SvgjsMarker1292)"></path></g><g id="SvgjsG1294"><path id="SvgjsPath1295" d="M320.5521369923711 194.81867808015107L150.91230682746388 251.85275891145608" stroke="#323232" stroke-width="2" fill="none" marker-end="url(#SvgjsMarker1296)"></path></g><g id="SvgjsG1298"><path id="SvgjsPath1299" d="M322.4590177080589 194.7833461410174L516.047536250988 251.97995389233733" stroke="#323232" stroke-width="2" fill="none" marker-end="url(#SvgjsMarker1300)"></path></g><g id="SvgjsG1302"><path id="SvgjsPath1303" d="M146.81657571191886 321.7300213986321L61.960327437092076 412.37192296492435" stroke="#323232" stroke-width="2" fill="none" marker-end="url(#SvgjsMarker1304)"></path></g><g id="SvgjsG1306"><path id="SvgjsPath1307" d="M148.0861197865287 321.8102244107897L213.3899687684966 412.0831921211571" stroke="#323232" stroke-width="2" fill="none" marker-end="url(#SvgjsMarker1308)"></path></g><g id="SvgjsG1310"><path id="SvgjsPath1311" d="M519.023114502303 321.8789654271279L470.2167877917095 411.8357244623394" stroke="#323232" stroke-width="2" fill="none" marker-end="url(#SvgjsMarker1312)"></path></g><g id="SvgjsG1314"><path id="SvgjsPath1315" d="M520.191571499126 321.7223080101983L607.0103426031463 412.3996911632862" stroke="#323232" stroke-width="2" fill="none" marker-end="url(#SvgjsMarker1316)"></path></g><g id="SvgjsG1318" transform="translate(360.50000000000006,86)"><path id="SvgjsPath1319" d="M 0 0L 69 0L 69 34L 0 34Z" stroke="none" fill="none"></path><g id="SvgjsG1320"><text id="SvgjsText1321" font-family="微软雅黑" text-anchor="middle" font-size="13px" width="69px" fill="#323232" font-weight="400" align="middle" lineHeight="125%" anchor="middle" family="微软雅黑" size="13px" weight="400" font-style="" opacity="1" y="6.375" transform="rotate(0)"><tspan id="SvgjsTspan1322" dy="16" x="34.5"><tspan id="SvgjsTspan1323" style="text-decoration:;">arg1</tspan></tspan></text></g></g><g id="SvgjsG1324" transform="translate(530.3846153846156,86)"><path id="SvgjsPath1325" d="M 0 0L 69 0L 69 34L 0 34Z" stroke="none" fill="none"></path><g id="SvgjsG1326"><text id="SvgjsText1327" font-family="微软雅黑" text-anchor="middle" font-size="13px" width="69px" fill="#323232" font-weight="400" align="middle" lineHeight="125%" anchor="middle" family="微软雅黑" size="13px" weight="400" font-style="" opacity="1" y="6.375" transform="rotate(0)"><tspan id="SvgjsTspan1328" dy="16" x="34.5"><tspan id="SvgjsTspan1329" style="text-decoration:;">mode</tspan></tspan></text></g></g><g id="SvgjsG1330" transform="translate(181.00000000000003,197)"><path id="SvgjsPath1331" d="M 0 0L 69 0L 69 34L 0 34Z" stroke="none" fill="none"></path><g id="SvgjsG1332"><text id="SvgjsText1333" font-family="微软雅黑" text-anchor="middle" font-size="13px" width="69px" fill="#323232" font-weight="400" align="middle" lineHeight="125%" anchor="middle" family="微软雅黑" size="13px" weight="400" font-style="" opacity="1" y="6.375" transform="rotate(0)"><tspan id="SvgjsTspan1334" dy="16" x="34.5"><tspan id="SvgjsTspan1335" style="text-decoration:;">arg0</tspan></tspan></text></g></g><g id="SvgjsG1336" transform="translate(305.5,206.5)"><path id="SvgjsPath1337" d="M 0 0L 69 0L 69 34L 0 34Z" stroke="none" fill="none"></path><g id="SvgjsG1338"><text id="SvgjsText1339" font-family="微软雅黑" text-anchor="middle" font-size="13px" width="69px" fill="#323232" font-weight="400" align="middle" lineHeight="125%" anchor="middle" family="微软雅黑" size="13px" weight="400" font-style="" opacity="1" y="6.375" transform="rotate(0)"><tspan id="SvgjsTspan1340" dy="16" x="34.5"><tspan id="SvgjsTspan1341" style="text-decoration:;">arg2</tspan></tspan></text></g></g><g id="SvgjsG1342" transform="translate(393.5,197)"><path id="SvgjsPath1343" d="M 0 0L 69 0L 69 34L 0 34Z" stroke="none" fill="none"></path><g id="SvgjsG1344"><text id="SvgjsText1345" font-family="微软雅黑" text-anchor="middle" font-size="13px" width="69px" fill="#323232" font-weight="400" align="middle" lineHeight="125%" anchor="middle" family="微软雅黑" size="13px" weight="400" font-style="" opacity="1" y="6.375" transform="rotate(0)"><tspan id="SvgjsTspan1346" dy="16" x="34.5"><tspan id="SvgjsTspan1347" style="text-decoration:;">arg1</tspan></tspan></text></g></g><g id="SvgjsG1348" transform="translate(50.5,342)"><path id="SvgjsPath1349" d="M 0 0L 69 0L 69 34L 0 34Z" stroke="none" fill="none"></path><g id="SvgjsG1350"><text id="SvgjsText1351" font-family="微软雅黑" text-anchor="middle" font-size="13px" width="69px" fill="#323232" font-weight="400" align="middle" lineHeight="125%" anchor="middle" family="微软雅黑" size="13px" weight="400" font-style="" opacity="1" y="6.375" transform="rotate(0)"><tspan id="SvgjsTspan1352" dy="16" x="34.5"><tspan id="SvgjsTspan1353" style="text-decoration:;">poss</tspan></tspan></text></g></g><g id="SvgjsG1354" transform="translate(169.5,342)"><path id="SvgjsPath1355" d="M 0 0L 69 0L 69 34L 0 34Z" stroke="none" fill="none"></path><g id="SvgjsG1356"><text id="SvgjsText1357" font-family="微软雅黑" text-anchor="middle" font-size="13px" width="69px" fill="#323232" font-weight="400" align="middle" lineHeight="125%" anchor="middle" family="微软雅黑" size="13px" weight="400" font-style="" opacity="1" y="-2.125" transform="rotate(0)"><tspan id="SvgjsTspan1358" dy="16" x="34.5"><tspan id="SvgjsTspan1359" style="text-decoration:;">arg0-of</tspan></tspan><tspan id="SvgjsTspan1360" dy="16" x="34.5"><tspan id="SvgjsTspan1361" style="text-decoration:;">x4/的</tspan></tspan></text></g></g><g id="SvgjsG1362" transform="translate(434,342)"><path id="SvgjsPath1363" d="M 0 0L 69 0L 69 34L 0 34Z" stroke="none" fill="none"></path><g id="SvgjsG1364"><text id="SvgjsText1365" font-family="微软雅黑" text-anchor="middle" font-size="13px" width="69px" fill="#323232" font-weight="400" align="middle" lineHeight="125%" anchor="middle" family="微软雅黑" size="13px" weight="400" font-style="" opacity="1" y="6.375" transform="rotate(0)"><tspan id="SvgjsTspan1366" dy="16" x="34.5"><tspan id="SvgjsTspan1367" style="text-decoration:;">quant</tspan></tspan></text></g></g><g id="SvgjsG1368" transform="translate(548.5000000000003,342)"><path id="SvgjsPath1369" d="M 0 0L 69 0L 69 34L 0 34Z" stroke="none" fill="none"></path><g id="SvgjsG1370"><text id="SvgjsText1371" font-family="微软雅黑" text-anchor="middle" font-size="13px" width="69px" fill="#323232" font-weight="400" align="middle" lineHeight="125%" anchor="middle" family="微软雅黑" size="13px" weight="400" font-style="" opacity="1" y="6.375" transform="rotate(0)"><tspan id="SvgjsTspan1372" dy="16" x="34.5"><tspan id="SvgjsTspan1373" style="text-decoration:;">cunit</tspan></tspan></text></g></g><g id="SvgjsG1374" transform="translate(303,165)"><path id="SvgjsPath1375" d="M 0 0L 37 0L 37 34L 0 34Z" stroke="none" fill="none"></path><g id="SvgjsG1376"><rect id="SvgjsRect1377" width="37" height="21" transform="translate(0,6.5)" fill="url(#SvgjsPattern1378)"></rect></g></g><g id="SvgjsG1380" transform="translate(470,59.615384615384556)"><path id="SvgjsPath1381" d="M 0 0L 37 0L 37 34L 0 34Z" stroke="none" fill="none"></path><g id="SvgjsG1382"><rect id="SvgjsRect1383" width="37" height="21" transform="translate(0,6.5)" fill="url(#SvgjsPattern1384)"></rect></g></g><g id="SvgjsG1386" transform="translate(633,165)"><path id="SvgjsPath1387" d="M 0 0L 37 0L 37 34L 0 34Z" stroke="none" fill="none"></path><g id="SvgjsG1388"><rect id="SvgjsRect1389" width="37" height="21" transform="translate(0,6.5)" fill="url(#SvgjsPattern1390)"></rect></g></g><g id="SvgjsG1392" transform="translate(129,288)"><path id="SvgjsPath1393" d="M 0 0L 37 0L 37 34L 0 34Z" stroke="none" fill="none"></path><g id="SvgjsG1394"><rect id="SvgjsRect1395" width="37" height="21" transform="translate(0,6.5)" fill="url(#SvgjsPattern1396)"></rect></g></g><g id="SvgjsG1398" transform="translate(303,288)"><path id="SvgjsPath1399" d="M 0 0L 37 0L 37 34L 0 34Z" stroke="none" fill="none"></path><g id="SvgjsG1400"><rect id="SvgjsRect1401" width="37" height="21" transform="translate(0,6.5)" fill="url(#SvgjsPattern1402)"></rect></g></g><g id="SvgjsG1404" transform="translate(501,288)"><path id="SvgjsPath1405" d="M 0 0L 37 0L 37 34L 0 34Z" stroke="none" fill="none"></path><g id="SvgjsG1406"><rect id="SvgjsRect1407" width="37" height="21" transform="translate(0,6.5)" fill="url(#SvgjsPattern1408)"></rect></g></g><g id="SvgjsG1410" transform="translate(41,450)"><path id="SvgjsPath1411" d="M 0 0L 37 0L 37 34L 0 34Z" stroke="none" fill="none"></path><g id="SvgjsG1412"><rect id="SvgjsRect1413" width="37" height="21" transform="translate(0,6.5)" fill="url(#SvgjsPattern1414)"></rect></g></g><g id="SvgjsG1416" transform="translate(197,450)"><path id="SvgjsPath1417" d="M 0 0L 37 0L 37 34L 0 34Z" stroke="none" fill="none"></path><g id="SvgjsG1418"><rect id="SvgjsRect1419" width="37" height="21" transform="translate(0,6.5)" fill="url(#SvgjsPattern1420)"></rect></g></g><g id="SvgjsG1422" transform="translate(450,450)"><path id="SvgjsPath1423" d="M 0 0L 37 0L 37 34L 0 34Z" stroke="none" fill="none"></path><g id="SvgjsG1424"><rect id="SvgjsRect1425" width="37" height="21" transform="translate(0,6.5)" fill="url(#SvgjsPattern1426)"></rect></g></g><g id="SvgjsG1428" transform="translate(591,450)"><path id="SvgjsPath1429" d="M 0 0L 37 0L 37 34L 0 34Z" stroke="none" fill="none"></path><g id="SvgjsG1430"><rect id="SvgjsRect1431" width="37" height="21" transform="translate(0,6.5)" fill="url(#SvgjsPattern1432)"></rect></g></g></svg>